<svg xmlns="http://www.w3.org/2000/svg" width="1684" height="330" fill="none"><path d="M357.44 127.21c0-37.53-30.84-62.2-75.74-62.2-42.67 0-87.4 30.67-87.4 99.05 0 52.26 31.53 90.82 86.2 90.82 30.67 0 64.43-17.48 73-29.48 0 0-5.83-22.45-21.76-22.45-8.4 0-14.56 3.25-21.42 6.17-7.2 2.91-15.59 5.48-26.56 5.48-15.25 0-41.47-6.17-41.47-38.9 0 0 12.33 3.6 40.44 3.6 60.15-.16 74.71-25.53 74.71-52.09zm-73.85-21.42c20.74 0 30.67 11.31 30.67 21.59 0 12.16-10.97 20.05-30.84 20.05-28.79 0-39.76-4.11-39.76-4.11 0-17.48 13.71-37.53 39.93-37.53zm186.09 108.99c-20.74 0-31.53-17.48-33.41-25.02-2.06-7.54-3.43-18.17-3.43-29.13l.34-56.21h15.08c12.17 0 21.59-3.6 28.1-10.63 6.69-7.2 9.94-16.62 9.94-28.62h-53.12l-.34-25.02.17-19.19.52-11.65c.17-3.08.51-5.65.85-7.54-16.11 0-28.44 3.43-36.84 10.28-8.4 6.86-12.68 18.16-12.68 34.1l-.34 124.75c0 51.07 24.34 84.48 70.77 84.48 22.96 0 39.75-12.33 39.75-31.01 0-6.69-.85-10.11-1.54-12.17-3.94.87-11.48 2.58-23.82 2.58zm116.53 2.4c-10.28 0-16.96-7.54-16.96-19.71V107.5l.17-19.19.51-11.65c.34-3.08.52-5.65.86-7.54-16.45 0-28.79 3.43-37.18 10.28-8.4 6.85-12.68 18.17-12.68 34.1l-.34 91.67c0 32.73 21.08 50.9 47.64 49.87 16.79-.69 31.19-8.57 31.19-26.22 0-7.37-1.2-13.2-1.2-13.2-3.96.87-6.7 1.56-12.01 1.56zM532.75 51.13c3.77 1.88 7.88 2.91 12.17 2.91 9.94 0 17.82-4.8 23.65-14.22 2.4-4.28 3.6-8.91 3.6-13.88 0-4.63-1.03-8.91-3.26-13.02s-5.48-7.2-9.77-9.43c-3.77-2.22-7.71-3.25-11.82-3.25-4.62 0-9.08 1.37-13.36 3.94-4.29 2.57-7.71 6.17-10.11 10.8-2.4 4.11-3.59 8.74-3.59 13.88 0 4.63 1.03 8.91 3.25 12.86 2.04 3.75 5.12 7.01 9.24 9.41zm172.56 18.34c-10.11 0-20.22 1.2-30.33 3.43s-19.36 6.51-27.59 12.85-14.91 15.08-20.05 26.39-7.71 25.7-7.71 43.36v51.58c0 15.94 2.06 30.67 11.65 37.87 10.46 7.88 22.62 8.23 38.73 8.23-.34-1.54-.51-6.17-.85-9.25-.34-2.91-.52-6.85-.52-11.65-.17-4.97-.17-11.31-.17-19.19v-66.14c0-15.6 2.57-35.64 29.99-37.87 15.43-1.37 29.13-7.2 29.13-23.99 0-3.94-.85-11.31-2.74-15.59h-19.54v-.03zM85.84 65.01C29.63 65.01.16 104.42.16 152.4c0 44.38 27.07 85.85 76.25 85.85 25.54 0 40.27-10.8 44.04-14.05v22.28c0 25.53-9.93 42.49-35.64 42.49-12.34 0-21.59-3.43-30.16-7.37-7.54-3.6-13.2-7.88-20.73-7.88-19.19 0-24.51 23.65-24.34 23.82 14.39 18.51 47.3 32.22 74.88 32.22 54.32 0 84.31-31.71 84.31-94.59v-73.51c-.17-57.41-25.53-96.65-82.93-96.65zm-.35 130.75c-21.07 0-37.18-13.37-37.18-42.67 0-31.19 16.45-47.47 37.18-47.47 20.39 0 35.3 12.34 35.3 45.07 0 33.59-16.1 45.07-35.3 45.07z" fill="#ffd111"/><path d="M957.19 64.77c55.04 0 86.64 44.17 86.64 92.76 0 55.04-31.6 98.88-90.72 98.88-55.04 0-86.64-43.83-86.64-92.42 0-55.04 31.6-99.22 90.72-99.22zm-4.08 40.78c-26.16 0-39.41 21.74-39.41 51.98 0 36.36 13.25 58.1 43.49 58.1 26.5 0 39.41-21.74 39.41-51.65 0-36.69-13.59-58.43-43.49-58.43zm205.36 147.91c-13.7 0-26.41-2.25-37.77-6.68-11.3-4.41-21.15-10.66-29.28-18.59-8.1-7.88-14.5-17.65-19-29.02-4.54-11.45-6.84-24.33-6.84-38.26 0-12.82 2.2-25.14 6.53-36.62 4.3-11.39 10.66-21.52 18.93-30.11 8.26-8.58 18.63-15.5 30.83-20.58 12.24-5.09 26.54-7.67 42.5-7.67 6.87 0 13.34 1.05 19.24 3.11 5.88 2.07 11.15 4.94 15.67 8.52 4.39 3.5 7.87 7.57 10.35 12.11 2.39 4.42 3.56 9.1 3.56 14.31v7.09a3.34 3.34 0 0 1-3.33 3.34c-.44 0-.87-.09-1.29-.26-1.6-.67-3.34-1.32-5.14-1.95-8.61-3-18.02-4.52-27.95-4.52-17.71 0-31.68 4.39-41.52 13.04-10.07 8.86-15.17 21.09-15.17 36.36 0 18.21 4.95 32 14.73 40.96 9.61 8.82 22.67 13.3 38.84 13.3 10.93 0 20.43-1.07 28.21-3.17 2.67-.72 5.31-1.54 7.85-2.45a3.28 3.28 0 0 1 1.11-.19c1.83 0 3.32 1.5 3.32 3.35V214c0 5.18-1.27 9.95-3.87 14.58-2.69 4.79-6.41 9.05-11.04 12.68-4.72 3.69-10.49 6.67-17.15 8.86-6.75 2.22-14.26 3.34-22.32 3.34zm152.13 2.7c-8.75 0-17.83-1.11-26.97-3.31-8.96-2.16-17.2-5.53-24.5-10.05-7.09-4.38-13.01-10.09-17.59-16.96-4.39-6.58-6.61-14.78-6.61-24.39 0-19.32 6.95-33.34 21.25-42.87 14.92-9.95 39.46-14.99 72.93-14.99h11.88a3.95 3.95 0 0 0 3.95-3.94v-10.38c0-13.23-7.19-18.96-13.22-21.44-7.02-2.87-17.35-4.27-31.59-4.27-9.35 0-17.5.55-24.24 1.62-6.78 1.1-12.77 2.59-17.79 4.44-5.16 1.9-9.82 4.3-13.85 7.12-.29.21-.58.3-.89.3-.38 0-.74-.15-1.01-.4a1.4 1.4 0 0 1-.43-1.03v-8.44c0-4.98 1.27-9.67 3.89-14.32 2.66-4.72 6.89-9.11 12.57-13.08 5.88-4.09 13.55-7.42 22.8-9.89 9.43-2.52 20.86-3.8 33.96-3.8 12.55 0 24.07 1.61 34.24 4.78 9.87 3.08 18.35 7.79 25.19 14 6.81 6.18 12.19 14.14 15.99 23.65 3.87 9.67 5.83 21.33 5.83 34.64v29.69c0 16.82-1.46 30.9-4.33 41.85-2.7 10.31-7.27 18.57-13.59 24.58-6.35 6.04-14.94 10.39-25.53 12.9-11.22 2.63-25.46 3.99-42.34 3.99zm16.06-84.17c-13.84 0-23.74 1.82-30.25 5.56-7.47 4.29-11.42 11.22-11.42 20.05 0 8.11 2.89 14.46 8.6 18.86 5.27 4.07 13.11 6.05 23.98 6.05 7.46 0 14.05-2.14 19.6-6.38 6.07-4.63 9.15-12.51 9.15-23.42v-16.78a3.95 3.95 0 0 0-3.95-3.94h-15.71 0zm151.29 81.78c-8.19 0-16.03-1.25-23.31-3.72-7.11-2.4-13.46-6.1-18.89-11-5.37-4.85-9.7-11.09-12.83-18.52-3.17-7.5-4.78-16.68-4.78-27.27V3.03h17.17c12.94 0 22.42 2.97 28.18 8.85 5.79 5.9 8.72 16.31 8.72 30.96V183.7c0 10.94 3.33 18.74 9.89 23.17 5.84 3.95 13.94 5.87 24.75 5.87h8.36v16.67c0 4.54-.96 8.3-2.83 11.18a22.21 22.21 0 0 1-7.83 7.37c-3.49 1.99-7.54 3.46-12.02 4.37a74.32 74.32 0 0 1-14.58 1.44zm-666.68 0c-8.18 0-16.03-1.25-23.31-3.72-7.11-2.4-13.47-6.1-18.89-11-5.37-4.85-9.7-11.09-12.83-18.52-3.17-7.5-4.78-16.68-4.78-27.27V3.03h17.17c12.94 0 22.42 2.97 28.17 8.85 5.79 5.9 8.73 16.31 8.73 30.96V183.7c0 10.94 3.33 18.74 9.89 23.17 5.83 3.95 13.93 5.87 24.75 5.87h8.36v16.67c0 4.54-.96 8.3-2.84 11.18-2.03 3.12-4.59 5.53-7.82 7.37-3.5 1.99-7.54 3.46-12.03 4.37-4.73.95-9.63 1.44-14.57 1.44zm794.62 1.05c-12.35 0-22.91-1.1-31.39-3.27-8.19-2.1-14.82-4.96-19.68-8.52-4.61-3.35-7.99-7.45-10.07-12.16-2.18-4.94-3.28-10.49-3.28-16.52v-8.58c5.04 2.75 10.78 5.23 17.08 7.35 10.2 3.45 22.62 5.19 36.92 5.19 13.33 0 22.51-1.6 28.07-4.88 8.19-4.82 9.91-11.6 9.91-16.44 0-3.19-.75-6.12-2.22-8.71-1.63-2.84-4.5-5.18-8.77-7.15-3.48-1.61-8.26-3.01-14.61-4.28-5.92-1.18-13.99-2.49-23.98-3.89-15.95-2.33-27.98-7.15-35.78-14.33-7.49-6.9-11.12-16.83-11.12-30.36 0-10.38 2.22-19.46 6.59-26.99 4.49-7.72 10.52-14.28 17.94-19.51 7.57-5.33 16.31-9.4 25.97-12.08a113.13 113.13 0 0 1 30.22-4.11c19.91 0 35.54 3.67 46.45 10.91 10.22 6.79 15.19 16 15.19 28.17v9.46c-5.29-2.78-11.32-5.21-17.94-7.25-10.41-3.18-22.54-4.79-36.06-4.79-13.84 0-23.35 1.74-29.07 5.31-8.22 5.14-9.94 11.35-9.94 15.66 0 3.1.75 5.83 2.22 8.13 1.59 2.51 4.39 4.47 8.82 6.17 3.34 1.29 8.02 2.57 14.31 3.92 6.03 1.3 14.14 2.78 24.1 4.4 14.66 2.34 26.58 7.59 35.44 15.61 8.51 7.71 12.65 18.48 12.65 32.92 0 18.73-6.54 33.11-20.01 43.97-13.71 11.05-33.2 16.65-57.96 16.65z" fill="#fff"/></svg>